# File created by Blade
# Date/Time:  Wed Apr 08 16:20:06 2015
#---------------------------------------------------------
:version 1.10
:name HOM
:units
  mass 1.0
  length 1.000000
  angle deg
:documentation
     Acclaim Skeleton File
:root
   axis xyz
   order TX TY TZ RX RY RZ
   position 0.000000 0.000000 0.000000
   orientation 0 0 0
:bonedata
   begin
      id 1
      name Spine_dum
      direction 0.000000 1.000000 0.000000
      length 4.885285
      axis 0.0 0.0 0.0 xyz
   end
   begin
      id 2
      name LeftUpLeg_dum
      direction 1.000000 0.000000 0.000000
      length 2.672193
      axis 0.0 0.0 0.0 xyz
   end
   begin
      id 3
      name RightUpLeg_dum
      direction -1.000000 0.000000 0.000000
      length 2.672193
      axis 0.0 0.0 0.0 xyz
   end
   begin
      id 4
      name Spine
      direction 0.000000 1.000000 0.000000
      length 0.000000
      axis 0.0 0.0 0.0 xyz
      dof rx ry rz
   end
   begin
      id 5
      name Spine_dum1
      direction 0.000000 1.000000 0.000000
      length 16.494159
      axis 0.0 0.0 0.0 xyz
   end
   begin
      id 6
      name Spine_dum2
      direction 0.000000 1.000000 0.000000
      length 10.663448
      axis 0.0 0.0 0.0 xyz
   end
   begin
      id 7
      name Spine_dum3
      direction 0.000000 1.000000 0.000000
      length 10.663448
      axis 0.0 0.0 0.0 xyz
   end
   begin
      id 8
      name Head
      direction 0.000000 1.000000 0.000000
      length 4.527550
      axis 0.0 0.0 0.0 xyz
      dof rx ry rz
   end
   begin
      id 9
      name LeftShoulder
      direction 1.000000 0.000000 0.000000
      length 7.531907
      axis 0.0 0.0 -90.0 xyz
      dof rx ry rz
   end
   begin
      id 10
      name LeftArm
      direction 1.000000 0.000000 0.000000
      length 10.229199
      axis 0.0 0.0 -90.0 xyz
      dof rx ry rz
   end
   begin
      id 11
      name LeftForeArm
      direction 1.000000 0.000000 0.000000
      length 8.673495
      axis 0.0 0.0 -90.0 xyz
      dof ry rz rx
   end
   begin
      id 12
      name LeftHand
      direction 0.000000 0.000000 0.000000
      length 0.000000
      axis 0.0 0.0 -90.0 xyz
      dof rx ry rz
   end
   begin
      id 13
      name LeftHand_dum1
      direction 0.000000 0.000000 0.000000
      length 0.000000
      axis 0.0 0.0 -90.0 xyz
   end
   begin
      id 14
      name LeftHand_dum2
      direction 1.000000 0.000000 0.000000
      length 3.937000
      axis 0.0 0.0 -90.0 xyz
   end
   begin
      id 15
      name LeftHandThumb1
      direction 0.000000 0.000000 1.000000
      length 3.937000
      axis 0.0 0.0 -90.0 xyz
      dof rx rz ry
   end
   begin
      id 16
      name RightShoulder
      direction -1.000000 0.000000 0.000000
      length 7.531907
      axis 0.0 0.0 90.0 xyz
      dof rx ry rz
   end
   begin
      id 17
      name RightArm
      direction -1.000000 0.000000 0.000000
      length 10.229199
      axis 0.0 0.0 90.0 xyz
      dof rx ry rz
   end
   begin
      id 18
      name RightForeArm
      direction -1.000000 0.000000 0.000000
      length 8.673495
      axis 0.0 0.0 90.0 xyz
      dof ry rz rx
   end
   begin
      id 19
      name RightHand
      direction 0.000000 0.000000 0.000000
      length 0.000000
      axis 0.0 0.0 90.0 xyz
      dof rx ry rz
   end
   begin
      id 20
      name RightHand_dum1
      direction 0.000000 0.000000 0.000000
      length 0.000000
      axis 0.0 0.0 90.0 xyz
   end
   begin
      id 21
      name RightHand_dum2
      direction -1.000000 0.000000 0.000000
      length 3.937000
      axis 0.0 0.0 90.0 xyz
   end
   begin
      id 22
      name RightHandThumb1
      direction 0.000000 0.000000 1.000000
      length 3.937000
      axis 0.0 0.0 90.0 xyz
      dof rx rz ry
   end
   begin
      id 23
      name LeftUpLeg
      direction 0.000000 -1.000000 0.000000
      length 16.263388
      axis 0.0 0.0 0.0 xyz
      dof rx ry rz
   end
   begin
      id 24
      name LeftLeg
      direction 0.000000 -1.000000 0.000000
      length 14.328163
      axis 0.0 0.0 0.0 xyz
      dof rx ry rz
   end
   begin
      id 25
      name LeftFoot
      direction 0.000000 -0.258819 0.965926
      length 5.031290
      axis 15.0 0.0 0.0 xyz
      dof rx ry rz
   end
   begin
      id 26
      name LeftToeBase
      direction 0.000000 0.000000 1.000000
      length 2.952750
      axis 0.0 0.0 0.0 xyz
      dof rx ry rz
   end
   begin
      id 27
      name RightUpLeg
      direction 0.000000 -1.000000 0.000000
      length 16.263388
      axis 0.0 0.0 0.0 xyz
      dof rx ry rz
   end
   begin
      id 28
      name RightLeg
      direction 0.000000 -1.000000 0.000000
      length 14.328163
      axis 0.0 0.0 0.0 xyz
      dof rx ry rz
   end
   begin
      id 29
      name RightFoot
      direction 0.000000 -0.258819 0.965926
      length 5.031290
      axis 15.0 0.0 0.0 xyz
      dof rx ry rz
   end
   begin
      id 30
      name RightToeBase
      direction 0.000000 0.000000 1.000000
      length 2.952750
      axis 0.0 0.0 0.0 xyz
      dof rx ry rz
   end
:hierarchy
   begin
      root Spine_dum LeftUpLeg_dum RightUpLeg_dum
      Spine_dum Spine
      LeftUpLeg_dum LeftUpLeg
      RightUpLeg_dum RightUpLeg
      Spine Spine_dum1 Spine_dum2 Spine_dum3
      Spine_dum1 Head
      Spine_dum2 LeftShoulder
      Spine_dum3 RightShoulder
      LeftShoulder LeftArm
      LeftArm LeftForeArm
      LeftForeArm LeftHand
      LeftHand LeftHand_dum1 LeftHand_dum2
      LeftHand_dum1 LeftHandThumb1
      RightShoulder RightArm
      RightArm RightForeArm
      RightForeArm RightHand
      RightHand RightHand_dum1 RightHand_dum2
      RightHand_dum1 RightHandThumb1
      LeftUpLeg LeftLeg
      LeftLeg LeftFoot
      LeftFoot LeftToeBase
      RightUpLeg RightLeg
      RightLeg RightFoot
      RightFoot RightToeBase
   end

# File created by Blade
# Date/Time:  Wed Apr 08 16:19:59 2015
# Frame Rate: 120.000 fps
#------------------------------------------------------
:FULLY-SPECIFIED
:DEGREES
453
root -18.683016 4.980268 -2.478833 202.574587 -66.964932 -284.964029
Spine 94.965417 24.282247 -10.786001
Head 19.687499 -12.786989 6.603315
LeftShoulder -14.575547 58.748271 22.180192
LeftArm 48.333080 38.254735 -59.688354
LeftForeArm -8.047427 -0.000000 31.623829
LeftHand 8.827308 0.000000 15.403797
LeftHandThumb1 -26.253704 0.000000 33.147579
RightShoulder -2.309418 -23.298472 -29.663828
RightArm -3.336465 -36.831040 106.865103
RightForeArm 22.061641 -0.000000 55.901860
RightHand 10.679921 -0.000000 -20.803487
RightHandThumb1 -24.326973 -0.000000 -32.862282
LeftUpLeg -45.875376 14.602029 9.771368
LeftLeg 123.748011 -0.000000 -0.000000
LeftFoot -4.722486 -7.352823 -5.177268
LeftToeBase -7.465867 -0.000000 0.000000
RightUpLeg -61.600043 9.183301 -5.018223
RightLeg 127.601104 -0.000000 -0.000000
RightFoot 6.120216 -16.629029 -11.248792
RightToeBase 1.027884 -0.000000 -0.000000
454
root -18.583174 5.006241 -2.450484 202.859931 -66.847183 -285.768002
Spine 94.641754 24.229956 -10.904176
Head 20.674381 -12.360882 5.435877
LeftShoulder -15.423273 58.956074 21.342138
LeftArm 48.733147 38.387365 -58.270538
LeftForeArm -9.009813 0.000000 32.974245
LeftHand 8.998052 -0.000000 16.096399
LeftHandThumb1 -26.253704 0.000000 33.147579
RightShoulder -2.480416 -23.484313 -29.297359
RightArm -3.417752 -36.919236 106.585281
RightForeArm 21.602130 -0.000000 56.609197
RightHand 11.014007 -0.000000 -22.671795
RightHandThumb1 -24.326973 -0.000000 -32.862282
LeftUpLeg -45.589257 14.843753 9.373135
LeftLeg 123.500926 -0.000000 -0.000000
LeftFoot -4.107181 -6.691431 -5.466276
LeftToeBase -6.567947 -0.000000 0.000000
RightUpLeg -61.275871 9.044174 -5.744075
RightLeg 127.058877 -0.000000 -0.000000
RightFoot 7.013771 -15.981145 -11.549235
RightToeBase 1.266141 -0.000000 -0.000000
455
root -18.498586 5.028583 -2.409197 202.790458 -66.799785 -285.860603
Spine 93.892475 24.076051 -10.941917
Head 21.979676 -11.929722 4.192343
LeftShoulder -15.880678 58.784849 20.707824
LeftArm 47.866583 38.198784 -58.650520
LeftForeArm -8.698626 -0.000000 34.085088
LeftHand 8.590712 0.000000 16.633952
LeftHandThumb1 -26.253704 0.000000 33.147579
RightShoulder -2.603273 -23.670351 -28.963240
RightArm -3.417680 -36.761176 106.290742
RightForeArm 21.174833 0.000000 57.135419
RightHand 10.891328 -0.000000 -23.828772
RightHandThumb1 -24.326973 -0.000000 -32.862282
LeftUpLeg -45.692341 15.203723 9.138601
LeftLeg 123.343772 -0.000000 -0.000000
LeftFoot -3.223975 -5.807856 -5.987906
LeftToeBase -5.926775 -0.000000 0.000000
RightUpLeg -61.253504 8.912635 -6.256377
RightLeg 126.499784 -0.000000 -0.000000
RightFoot 7.837609 -15.524997 -11.605887
RightToeBase 1.293514 -0.000000 -0.000000
456
root -18.402032 5.054358 -2.367338 202.280246 -66.778651 -285.446242
Spine 93.129017 23.912058 -10.738323
Head 23.474454 -11.561396 2.916648
LeftShoulder -15.876521 58.607036 20.573981
LeftArm 46.600305 37.679756 -60.230013
LeftForeArm -7.694505 -0.000000 34.743343
LeftHand 8.396103 -0.000000 16.781524
LeftHandThumb1 -26.253704 0.000000 33.147579
RightShoulder -2.732872 -23.905803 -28.803880
RightArm -3.257232 -36.438427 106.054589
RightForeArm 21.125399 0.000000 57.462907
RightHand 11.057478 -0.000000 -24.019410
RightHandThumb1 -24.326973 -0.000000 -32.862282
LeftUpLeg -45.791628 15.567274 9.122815
LeftLeg 123.119149 -0.000000 -0.000000
LeftFoot -1.928960 -5.152748 -6.613500
LeftToeBase -5.952973 -0.000000 0.000000
RightUpLeg -61.208972 8.851631 -6.596890
RightLeg 125.851740 -0.000000 -0.000000
RightFoot 8.780148 -15.029133 -11.926501
RightToeBase 1.718845 -0.000000 -0.000000
457
root -18.309846 5.073883 -2.322485 201.394646 -66.880408 -284.402803
Spine 92.165597 23.609190 -10.371625
Head 24.976888 -11.125809 1.663554
LeftShoulder -15.980578 58.559245 20.373975
LeftArm 45.519002 36.904940 -62.295296
LeftForeArm -6.612773 -0.000000 34.917529
LeftHand 8.093389 -0.000000 16.867911
LeftHandThumb1 -26.253704 0.000000 33.147579
RightShoulder -2.895004 -24.169803 -28.726709
RightArm -2.936894 -36.004839 105.837768
RightForeArm 20.865517 -0.000000 57.585627
RightHand 10.899238 -0.000000 -24.545742
RightHandThumb1 -24.326973 -0.000000 -32.862282
LeftUpLeg -46.161359 15.900079 9.366295
LeftLeg 122.945284 -0.000000 -0.000000
LeftFoot -0.470260 -4.849133 -6.621760
LeftToeBase -5.464413 -0.000000 0.000000
RightUpLeg -61.315236 8.790331 -6.664074
RightLeg 125.198199 -0.000000 -0.000000
RightFoot 9.499622 -14.695453 -12.036410
RightToeBase 2.216679 -0.000000 -0.000000
458
root -18.216007 5.085259 -2.276834 200.324524 -67.081329 -282.945983
Spine 91.031204 23.190171 -9.950324
Head 26.408965 -10.671237 0.432134
LeftShoulder -16.364438 58.753522 20.078715
LeftArm 45.200584 36.273159 -63.944957
LeftForeArm -5.661341 -0.000000 34.701643
LeftHand 7.672576 -0.000000 16.098993
LeftHandThumb1 -26.253704 0.000000 33.147579
RightShoulder -3.042516 -24.379756 -28.778029
RightArm -2.525800 -35.584092 105.681005
RightForeArm 20.324021 -0.000000 57.359465
RightHand 11.114952 -0.000000 -24.677769
RightHandThumb1 -24.326973 -0.000000 -32.862282
LeftUpLeg -46.754966 16.163484 9.767236
LeftLeg 122.761190 -0.000000 -0.000000
LeftFoot 1.070390 -4.977559 -6.133388
LeftToeBase -4.882497 -0.000000 0.000000
RightUpLeg -61.590650 8.692340 -6.537949
RightLeg 124.513518 -0.000000 -0.000000
RightFoot 10.254460 -14.361163 -12.060752
RightToeBase 2.658680 -0.000000 -0.000000
459
root -18.109667 5.091441 -2.231889 199.047071 -67.353422 -281.065537
Spine 89.779999 22.675981 -9.454368
Head 27.701240 -10.196026 -0.733643
LeftShoulder -16.761411 58.942956 19.798460
LeftArm 45.188877 35.781459 -65.421653
LeftForeArm -4.903207 -0.000000 34.161838
LeftHand 7.377995 -0.000000 14.838270
LeftHandThumb1 -26.253704 0.000000 33.147579
RightShoulder -3.140424 -24.436124 -28.928068
RightArm -2.073874 -35.200856 105.623475
RightForeArm 19.956693 -0.000000 56.908616
RightHand 11.154991 -0.000000 -24.936318
RightHandThumb1 -24.326973 -0.000000 -32.862282
LeftUpLeg -47.554556 16.368328 10.292002
LeftLeg 122.538801 -0.000000 -0.000000
LeftFoot 2.660225 -5.383009 -5.649134
LeftToeBase -4.799687 -0.000000 0.000000
RightUpLeg -61.970036 8.588669 -6.217982
RightLeg 123.768646 -0.000000 -0.000000
RightFoot 10.800015 -14.210086 -11.904586
RightToeBase 3.136351 -0.000000 -0.000000
460
root -17.998406 5.084572 -2.185886 197.678774 -67.592785 -278.885286
Spine 88.364937 22.185396 -9.019532
Head 28.764226 -9.745900 -1.744384
LeftShoulder -17.264570 59.087843 19.477637
LeftArm 45.217124 35.412145 -66.827082
LeftForeArm -4.312052 0.000000 33.603278
LeftHand 6.976904 0.000000 13.565877
LeftHandThumb1 -26.253704 0.000000 33.147579
RightShoulder -3.100895 -24.385283 -29.133155
RightArm -1.615373 -34.818946 105.589926
RightForeArm 19.721598 -0.000000 56.373836
RightHand 11.275996 -0.000000 -25.330146
RightHandThumb1 -24.326973 -0.000000 -32.862282
LeftUpLeg -48.512777 16.567248 10.916106
LeftLeg 122.299408 -0.000000 -0.000000
LeftFoot 3.869531 -6.088416 -5.139488
LeftToeBase -4.654260 -0.000000 0.000000
RightUpLeg -62.534184 8.537630 -5.799226
RightLeg 123.006220 -0.000000 -0.000000
RightFoot 11.211565 -14.199168 -11.764892
RightToeBase 3.720612 -0.000000 -0.000000
